<svg width="20" height="21" viewBox="0 0 20 21" fill="none" xmlns="http://www.w3.org/2000/svg">
<path d="M14.1667 9.74662V3.07996H5.83333V6.41329H2.5V18.08H9.16667V14.7466H10.8333V18.08H17.5V9.74662H14.1667ZM5.83333 16.4133H4.16667V14.7466H5.83333V16.4133ZM5.83333 13.08H4.16667V11.4133H5.83333V13.08ZM5.83333 9.74662H4.16667V8.07996H5.83333V9.74662ZM9.16667 13.08H7.5V11.4133H9.16667V13.08ZM9.16667 9.74662H7.5V8.07996H9.16667V9.74662ZM9.16667 6.41329H7.5V4.74662H9.16667V6.41329ZM12.5 13.08H10.8333V11.4133H12.5V13.08ZM12.5 9.74662H10.8333V8.07996H12.5V9.74662ZM12.5 6.41329H10.8333V4.74662H12.5V6.41329ZM15.8333 16.4133H14.1667V14.7466H15.8333V16.4133ZM15.8333 13.08H14.1667V11.4133H15.8333V13.08Z" fill="currentColor"/>
</svg>
