<svg width="20" height="21" viewBox="0 0 20 21" fill="none" xmlns="http://www.w3.org/2000/svg">
<path d="M6.32504 5.29871C5.67504 4.64871 5.67504 3.59038 6.32504 2.94038C6.97504 2.29038 8.03337 2.29038 8.68337 2.94038C9.33337 3.59038 9.33337 4.64871 8.68337 5.29871C8.02504 5.95705 6.97504 5.95705 6.32504 5.29871ZM5.00004 14.1237V6.62371H3.33337V14.1237C3.33337 16.4237 5.20004 18.2904 7.50004 18.2904H12.5V16.6237H7.50004C6.11671 16.6237 5.00004 15.507 5.00004 14.1237ZM16.6667 17.5154L12.4417 13.2904H9.58337V10.2237C10.75 11.182 12.5834 12.0237 14.1667 12.0237V10.2237C12.7834 10.2404 11.1584 9.49871 10.275 8.52371L9.10837 7.23205C8.95004 7.05705 8.75004 6.91538 8.53337 6.81538C8.29171 6.69871 8.01671 6.62371 7.73337 6.62371H7.70837C6.67504 6.62371 5.83337 7.46538 5.83337 8.49871V13.2904C5.83337 14.6737 6.95004 15.7904 8.33337 15.7904H12.5584L15.475 18.707L16.6667 17.5154Z" fill="currentColor"/>
</svg>
