<svg width="186" height="59" viewBox="0 0 186 59" fill="none" xmlns="http://www.w3.org/2000/svg">
<g clip-path="url(#clip0_2258_476)">
<path d="M30.79 37.8C34.6339 37.8 37.75 34.6839 37.75 30.84C37.75 26.9961 34.6339 23.88 30.79 23.88C26.9461 23.88 23.83 26.9961 23.83 30.84C23.83 34.6839 26.9461 37.8 30.79 37.8Z" fill="#893ECB"/>
<path d="M73.8599 32.38H63.3099C63.3799 33.32 63.6899 34.05 64.2199 34.55C64.7599 35.05 65.4099 35.3 66.1999 35.3C67.3599 35.3 68.1699 34.81 68.6299 33.83H73.5899C73.3399 34.83 72.8799 35.73 72.2099 36.53C71.5499 37.33 70.7199 37.96 69.7199 38.41C68.7199 38.86 67.5999 39.09 66.3699 39.09C64.8799 39.09 63.5499 38.77 62.3899 38.14C61.2299 37.5 60.3199 36.6 59.6699 35.42C59.0199 34.24 58.6899 32.86 58.6899 31.28C58.6899 29.7 59.0099 28.32 59.6599 27.14C60.3099 25.96 61.2099 25.05 62.3699 24.42C63.5299 23.79 64.8699 23.47 66.3799 23.47C67.8899 23.47 69.1599 23.78 70.2999 24.4C71.4399 25.02 72.3399 25.9 72.9799 27.04C73.6199 28.18 73.9499 29.52 73.9499 31.05C73.9499 31.49 73.9199 31.94 73.8699 32.41L73.8599 32.38ZM69.1699 29.79C69.1699 28.99 68.8999 28.36 68.3499 27.88C67.7999 27.41 67.1199 27.17 66.3099 27.17C65.4999 27.17 64.8699 27.4 64.3299 27.85C63.7899 28.3 63.4599 28.95 63.3399 29.78H69.1699V29.79Z" fill="#414042"/>
<path d="M85.38 38.86L82.46 34.64L80.01 38.86H74.97L79.98 31.09L74.83 23.65H80.06L82.98 27.85L85.43 23.65H90.47L85.37 31.31L90.6 38.86H85.37H85.38Z" fill="#414042"/>
<path d="M106.66 32.38H96.11C96.18 33.32 96.49 34.05 97.02 34.55C97.56 35.05 98.21 35.3 99 35.3C100.16 35.3 100.97 34.81 101.43 33.83H106.39C106.14 34.83 105.68 35.73 105.01 36.53C104.35 37.33 103.52 37.96 102.52 38.41C101.52 38.86 100.4 39.09 99.17 39.09C97.68 39.09 96.35 38.77 95.19 38.14C94.03 37.5 93.12 36.6 92.47 35.42C91.82 34.24 91.49 32.86 91.49 31.28C91.49 29.7 91.81 28.32 92.46 27.14C93.11 25.96 94.01 25.05 95.17 24.42C96.33 23.79 97.67 23.47 99.18 23.47C100.69 23.47 101.96 23.78 103.1 24.4C104.24 25.02 105.14 25.9 105.78 27.04C106.42 28.18 106.75 29.52 106.75 31.05C106.75 31.49 106.72 31.94 106.67 32.41L106.66 32.38ZM101.97 29.79C101.97 28.99 101.7 28.36 101.15 27.88C100.6 27.41 99.92 27.17 99.11 27.17C98.3 27.17 97.67 27.4 97.13 27.85C96.59 28.3 96.26 28.95 96.14 29.78H101.97V29.79Z" fill="#414042"/>
<path d="M109.23 27.12C109.88 25.94 110.77 25.03 111.93 24.4C113.09 23.77 114.4 23.45 115.89 23.45C117.8 23.45 119.39 23.95 120.67 24.95C121.95 25.95 122.79 27.36 123.19 29.17H118.23C117.81 28.01 117 27.43 115.8 27.43C114.95 27.43 114.26 27.76 113.76 28.43C113.25 29.09 113 30.04 113 31.28C113 32.52 113.25 33.46 113.76 34.13C114.27 34.79 114.95 35.13 115.8 35.13C117 35.13 117.81 34.55 118.23 33.39H123.19C122.79 35.17 121.95 36.57 120.66 37.59C119.37 38.61 117.78 39.12 115.89 39.12C114.4 39.12 113.08 38.8 111.93 38.17C110.78 37.54 109.88 36.63 109.23 35.45C108.59 34.27 108.26 32.89 108.26 31.31C108.26 29.73 108.58 28.35 109.23 27.17V27.12Z" fill="#414042"/>
<path d="M133.31 27.53H130.8V38.87H126.14V27.53H124.45V23.66H126.14V23.22C126.14 21.35 126.67 19.93 127.75 18.96C128.82 17.99 130.39 17.5 132.46 17.5C132.8 17.5 133.06 17.5 133.22 17.53V21.48C132.33 21.43 131.7 21.55 131.34 21.86C130.98 22.17 130.79 22.72 130.79 23.52V23.66H133.3V27.53H133.31Z" fill="#414042"/>
<path d="M140.15 18.7V38.86H135.49V18.7H140.15Z" fill="#414042"/>
<path d="M157.78 32.38H147.23C147.3 33.32 147.61 34.05 148.14 34.55C148.68 35.05 149.33 35.3 150.12 35.3C151.28 35.3 152.09 34.81 152.55 33.83H157.51C157.26 34.83 156.8 35.73 156.13 36.53C155.47 37.33 154.64 37.96 153.64 38.41C152.64 38.86 151.52 39.09 150.29 39.09C148.8 39.09 147.47 38.77 146.31 38.14C145.15 37.5 144.24 36.6 143.59 35.42C142.94 34.24 142.61 32.86 142.61 31.28C142.61 29.7 142.93 28.32 143.58 27.14C144.23 25.96 145.13 25.05 146.29 24.42C147.45 23.79 148.79 23.47 150.3 23.47C151.81 23.47 153.08 23.78 154.22 24.4C155.36 25.02 156.26 25.9 156.9 27.04C157.54 28.18 157.87 29.52 157.87 31.05C157.87 31.49 157.84 31.94 157.79 32.41L157.78 32.38ZM153.09 29.79C153.09 28.99 152.82 28.36 152.27 27.88C151.72 27.41 151.04 27.17 150.23 27.17C149.42 27.17 148.79 27.4 148.25 27.85C147.71 28.3 147.38 28.95 147.26 29.78H153.09V29.79Z" fill="#414042"/>
<path d="M174.56 32.38H164.01C164.08 33.32 164.39 34.05 164.92 34.55C165.46 35.05 166.11 35.3 166.9 35.3C168.06 35.3 168.87 34.81 169.33 33.83H174.29C174.04 34.83 173.58 35.73 172.91 36.53C172.25 37.33 171.42 37.96 170.42 38.41C169.42 38.86 168.3 39.09 167.07 39.09C165.58 39.09 164.25 38.77 163.09 38.14C161.93 37.5 161.02 36.6 160.37 35.42C159.72 34.24 159.39 32.86 159.39 31.28C159.39 29.7 159.71 28.32 160.36 27.14C161.01 25.96 161.91 25.05 163.07 24.42C164.23 23.79 165.57 23.47 167.08 23.47C168.59 23.47 169.86 23.78 171 24.4C172.14 25.02 173.04 25.9 173.68 27.04C174.32 28.18 174.65 29.52 174.65 31.05C174.65 31.49 174.62 31.94 174.57 32.41L174.56 32.38ZM169.87 29.79C169.87 28.99 169.6 28.36 169.05 27.88C168.5 27.41 167.82 27.17 167.01 27.17C166.2 27.17 165.57 27.4 165.03 27.85C164.49 28.3 164.16 28.95 164.04 29.78H169.87V29.79Z" fill="#414042"/>
<path d="M185.57 34.91V38.86H183.2C181.51 38.86 180.19 38.45 179.25 37.62C178.31 36.79 177.83 35.44 177.83 33.57V27.52H175.98V23.65H177.83V19.94H182.49V23.65H185.54V27.52H182.49V33.62C182.49 34.07 182.6 34.4 182.82 34.6C183.04 34.8 183.4 34.9 183.91 34.9H185.57V34.91Z" fill="#414042"/>
<path d="M9.78999 47.92L3.31999 57.71C2.38999 59.27 -0.0100098 58.61 -0.0100098 56.79V19.58C-9.76585e-06 8.77 8.75999 0 19.56 0H56.75C58.61 0 59.29 2.45 57.69 3.4L46.67 9.79C46.39 9.96 46.06 10.05 45.73 10.05H19.6C14.32 10.05 10.05 14.33 10.05 19.6V46.99C10.05 47.31 9.95999 47.63 9.78999 47.91V47.92Z" fill="#00DA9D"/>
</g>
<defs>
<clipPath id="clip0_2258_476">
<rect width="185.57" height="58.58" fill="white"/>
</clipPath>
</defs>
</svg>
