<svg width="20" height="21" viewBox="0 0 20 21" fill="none" xmlns="http://www.w3.org/2000/svg">
<path d="M9.99996 2.24664C5.39996 2.24664 1.66663 5.97998 1.66663 10.58C1.66663 15.18 5.39996 18.9133 9.99996 18.9133C14.6 18.9133 18.3333 15.18 18.3333 10.58C18.3333 5.97998 14.6 2.24664 9.99996 2.24664ZM6.12496 15.9966C7.21663 15.2133 8.54996 14.7466 9.99996 14.7466C11.45 14.7466 12.7833 15.2133 13.875 15.9966C12.7833 16.78 11.45 17.2466 9.99996 17.2466C8.54996 17.2466 7.21663 16.78 6.12496 15.9966ZM15.1166 14.8466C13.7083 13.7466 11.9333 13.08 9.99996 13.08C8.06663 13.08 6.29163 13.7466 4.88329 14.8466C3.91663 13.6883 3.33329 12.205 3.33329 10.58C3.33329 6.89664 6.31663 3.91331 9.99996 3.91331C13.6833 3.91331 16.6666 6.89664 16.6666 10.58C16.6666 12.205 16.0833 13.6883 15.1166 14.8466Z" fill="currentColor"/>
<path d="M9.99996 5.57998C8.39163 5.57998 7.08329 6.88831 7.08329 8.49664C7.08329 10.105 8.39163 11.4133 9.99996 11.4133C11.6083 11.4133 12.9166 10.105 12.9166 8.49664C12.9166 6.88831 11.6083 5.57998 9.99996 5.57998ZM9.99996 9.74664C9.30829 9.74664 8.74996 9.18831 8.74996 8.49664C8.74996 7.80498 9.30829 7.24664 9.99996 7.24664C10.6916 7.24664 11.25 7.80498 11.25 8.49664C11.25 9.18831 10.6916 9.74664 9.99996 9.74664Z" fill="currentColor"/>
</svg>
