<svg width="59" height="59" viewBox="0 0 59 59" fill="none" xmlns="http://www.w3.org/2000/svg">
<g clip-path="url(#clip0_2276_3288)">
<path d="M30.7901 37.7999C34.634 37.7999 37.7501 34.6838 37.7501 30.8399C37.7501 26.996 34.634 23.8799 30.7901 23.8799C26.9462 23.8799 23.8301 26.996 23.8301 30.8399C23.8301 34.6838 26.9462 37.7999 30.7901 37.7999Z" fill="#893ECB"/>
<path d="M9.78999 47.92L3.31999 57.71C2.38999 59.27 -0.0100098 58.61 -0.0100098 56.79V19.58C-9.76585e-06 8.77 8.75999 0 19.56 0H56.75C58.61 0 59.29 2.45 57.69 3.4L46.67 9.79C46.39 9.96 46.06 10.05 45.73 10.05H19.6C14.32 10.05 10.05 14.33 10.05 19.6V46.99C10.05 47.31 9.95999 47.63 9.78999 47.91V47.92Z" fill="#00DA9D"/>
</g>
<defs>
<clipPath id="clip0_2276_3288">
<rect width="58.58" height="58.58" fill="white"/>
</clipPath>
</defs>
</svg>
