<svg width="20" height="21" viewBox="0 0 20 21" fill="none" xmlns="http://www.w3.org/2000/svg">
<path d="M17.0833 3.07996L16.95 3.10496L12.5 4.82996L7.5 3.07996L2.8 4.66329C2.625 4.72162 2.5 4.87162 2.5 5.06329V17.6633C2.5 17.8966 2.68333 18.08 2.91667 18.08L3.05 18.055L7.5 16.33L12.5 18.08L17.2 16.4966C17.375 16.4383 17.5 16.2883 17.5 16.0966V3.49662C17.5 3.26329 17.3167 3.07996 17.0833 3.07996ZM8.33333 5.13829L11.6667 6.30496V16.0216L8.33333 14.855V5.13829ZM4.16667 5.96329L6.66667 5.12162V14.8716L4.16667 15.8383V5.96329ZM15.8333 15.1966L13.3333 16.0383V6.29662L15.8333 5.32996V15.1966Z" fill="currentColor"/>
</svg>
