<svg width="151" height="134" viewBox="0 0 151 134" fill="none" xmlns="http://www.w3.org/2000/svg">
<g clip-path="url(#clip0_2216_10808)">
<path d="M81.2454 60.9824C87.4467 60.9824 92.4739 55.9552 92.4739 49.7539C92.4739 43.5526 87.4467 38.5254 81.2454 38.5254C75.044 38.5254 70.0169 43.5526 70.0169 49.7539C70.0169 55.9552 75.044 60.9824 81.2454 60.9824Z" fill="white"/>
<path d="M17.9721 126.063H5.48519C5.56586 127.176 5.93691 128.031 6.5661 128.628C7.19528 129.225 7.98579 129.515 8.90537 129.515C10.2767 129.515 11.2446 128.934 11.777 127.773H17.6494C17.3429 128.95 16.8105 130.015 16.02 130.967C15.2295 131.919 14.2454 132.661 13.0677 133.193C11.89 133.726 10.5671 134 9.09897 134C7.34048 134 5.75945 133.629 4.38815 132.871C3.01686 132.112 1.93595 131.048 1.16157 129.644C0.38719 128.241 0 126.611 0 124.74C0 122.868 0.38719 121.239 1.14544 119.835C1.90368 118.432 2.98459 117.367 4.35589 116.609C5.72719 115.85 7.30821 115.479 9.09897 115.479C10.8897 115.479 12.3901 115.85 13.7452 116.576C15.1004 117.302 16.1652 118.351 16.9234 119.706C17.6817 121.061 18.0689 122.642 18.0689 124.449C18.0689 124.966 18.0366 125.498 17.9721 126.063ZM12.4223 122.997C12.4223 122.045 12.0997 121.303 11.4544 120.739C10.8091 120.174 10.0024 119.9 9.03443 119.9C8.06646 119.9 7.32434 120.174 6.69516 120.706C6.06598 121.239 5.66265 122.013 5.51746 122.997H12.4223Z" fill="white"/>
<path d="M31.6205 133.742L28.1681 128.741L25.2641 133.742H19.295L25.2319 124.546L19.1336 115.738H25.3287L28.7811 120.706L31.685 115.738H37.6542L31.6205 124.804L37.8156 133.742H31.6205Z" fill="white"/>
<path d="M56.8201 126.063H44.3332C44.4139 127.176 44.785 128.031 45.4142 128.628C46.0433 129.225 46.8338 129.515 47.7534 129.515C49.1247 129.515 50.0927 128.934 50.6251 127.773H56.4975C56.1909 128.95 55.6586 130.015 54.868 130.967C54.0775 131.919 53.0934 132.661 51.9157 133.193C50.738 133.726 49.4151 134 47.947 134C46.1885 134 44.6075 133.629 43.2362 132.871C41.8649 132.112 40.784 131.048 40.0096 129.644C39.2352 128.241 38.8481 126.611 38.8481 124.74C38.8481 122.868 39.2352 121.239 39.9935 119.835C40.7517 118.432 41.8326 117.367 43.2039 116.609C44.5752 115.85 46.1563 115.479 47.947 115.479C49.7378 115.479 51.2381 115.85 52.5933 116.576C53.9485 117.302 55.0132 118.351 55.7715 119.706C56.5297 121.061 56.9169 122.642 56.9169 124.449C56.9169 124.966 56.8847 125.498 56.8201 126.063ZM51.2704 122.997C51.2704 122.045 50.9477 121.303 50.3024 120.739C49.6571 120.174 48.8505 119.9 47.8825 119.9C46.9145 119.9 46.1724 120.174 45.5432 120.706C44.914 121.239 44.5107 122.013 44.3655 122.997H51.2704Z" fill="white"/>
<path d="M59.8693 119.835C60.6275 118.432 61.6923 117.367 63.0636 116.609C64.4349 115.85 65.9998 115.479 67.7582 115.479C70.0169 115.479 71.9044 116.076 73.4209 117.254C74.9374 118.432 75.9376 120.11 76.4055 122.255H70.5331C70.033 120.884 69.0811 120.19 67.6614 120.19C66.6451 120.19 65.8384 120.577 65.2415 121.368C64.6446 122.158 64.3381 123.272 64.3381 124.74C64.3381 126.208 64.6446 127.321 65.2415 128.111C65.8384 128.902 66.6451 129.289 67.6614 129.289C69.0811 129.289 70.033 128.595 70.5331 127.224H76.4055C75.9376 129.338 74.9374 130.983 73.4048 132.193C71.8721 133.403 70.0007 134 67.7582 134C65.9998 134 64.4349 133.629 63.0636 132.871C61.6923 132.112 60.6275 131.048 59.8693 129.644C59.111 128.241 58.7238 126.611 58.7238 124.74C58.7238 122.868 59.111 121.239 59.8693 119.835Z" fill="white"/>
<path d="M88.3761 120.319H85.4076V133.742H79.8902V120.319H77.8897V115.738H79.8902V115.221C79.8902 113.011 80.5194 111.317 81.7939 110.172C83.0684 109.026 84.9237 108.445 87.3759 108.445C87.7792 108.445 88.0857 108.445 88.2793 108.478V113.156C87.2307 113.092 86.4886 113.237 86.053 113.608C85.6174 113.979 85.4076 114.624 85.4076 115.576V115.738H88.3761V120.319Z" fill="white"/>
<path d="M96.4749 109.865V133.742H90.9574V109.865H96.4749Z" fill="white"/>
<path d="M117.351 126.063H104.864C104.945 127.176 105.316 128.031 105.945 128.628C106.574 129.225 107.365 129.515 108.284 129.515C109.655 129.515 110.623 128.934 111.156 127.773H117.028C116.722 128.95 116.189 130.015 115.399 130.967C114.608 131.919 113.624 132.661 112.446 133.193C111.269 133.726 109.946 134 108.478 134C106.719 134 105.138 133.629 103.767 132.871C102.396 132.112 101.315 131.048 100.54 129.644C99.766 128.241 99.3788 126.611 99.3788 124.74C99.3788 122.868 99.766 121.239 100.524 119.835C101.282 118.432 102.363 117.367 103.735 116.609C105.106 115.85 106.687 115.479 108.478 115.479C110.269 115.479 111.769 115.85 113.124 116.576C114.479 117.302 115.544 118.351 116.302 119.706C117.06 121.061 117.448 122.642 117.448 124.449C117.448 124.966 117.415 125.498 117.351 126.063ZM111.801 122.997C111.801 122.045 111.478 121.303 110.833 120.739C110.188 120.174 109.381 119.9 108.413 119.9C107.445 119.9 106.703 120.174 106.074 120.706C105.445 121.239 105.041 122.013 104.896 122.997H111.801Z" fill="white"/>
<path d="M137.227 126.063H124.74C124.82 127.176 125.191 128.031 125.821 128.628C126.45 129.225 127.24 129.515 128.16 129.515C129.531 129.515 130.499 128.934 131.032 127.773H136.904C136.597 128.95 136.065 130.015 135.274 130.967C134.484 131.919 133.5 132.661 132.322 133.193C131.144 133.726 129.822 134 128.353 134C126.595 134 125.014 133.629 123.643 132.871C122.271 132.112 121.19 131.048 120.416 129.644C119.642 128.241 119.255 126.611 119.255 124.74C119.255 122.868 119.642 121.239 120.4 119.835C121.158 118.432 122.239 117.367 123.61 116.609C124.982 115.85 126.563 115.479 128.353 115.479C130.144 115.479 131.645 115.85 133 116.576C134.355 117.302 135.42 118.351 136.178 119.706C136.936 121.061 137.323 122.642 137.323 124.449C137.323 124.966 137.291 125.498 137.227 126.063ZM131.677 122.997C131.677 122.045 131.354 121.303 130.709 120.739C130.064 120.174 129.257 119.9 128.289 119.9C127.321 119.9 126.579 120.174 125.95 120.706C125.32 121.239 124.917 122.013 124.772 122.997H131.677Z" fill="white"/>
<path d="M150.262 129.063V133.742H147.455C145.454 133.742 143.889 133.258 142.776 132.274C141.663 131.29 141.098 129.692 141.098 127.482V120.319H138.904V115.738H141.098V111.349H146.616V115.738H150.23V120.319H146.616V127.547C146.616 128.079 146.745 128.466 147.003 128.708C147.261 128.95 147.697 129.063 148.294 129.063H150.262Z" fill="white"/>
<path d="M47.3663 77.3089L36.9283 93.1031C35.4279 95.6198 31.556 94.555 31.556 91.6188V31.5882C31.5721 14.1486 45.7046 0 63.1281 0H123.126C126.127 0 127.224 3.95256 124.643 5.48519L106.864 15.7941C106.413 16.0684 105.88 16.2136 105.348 16.2136H63.1926C54.6745 16.2136 47.7857 23.1185 47.7857 31.6205V75.8086C47.7857 76.3248 47.6405 76.8411 47.3663 77.2928V77.3089Z" fill="white"/>
</g>
<defs>
<clipPath id="clip0_2216_10808">
<rect width="150.262" height="134" fill="white"/>
</clipPath>
</defs>
</svg>
