<svg width="20" height="21" viewBox="0 0 20 21" fill="none" xmlns="http://www.w3.org/2000/svg">
<path d="M7.49996 10.5799C9.10829 10.5799 10.4166 9.27158 10.4166 7.66325C10.4166 6.05492 9.10829 4.74658 7.49996 4.74658C5.89163 4.74658 4.58329 6.05492 4.58329 7.66325C4.58329 9.27158 5.89163 10.5799 7.49996 10.5799ZM7.49996 6.41325C8.19163 6.41325 8.74996 6.97158 8.74996 7.66325C8.74996 8.35492 8.19163 8.91325 7.49996 8.91325C6.80829 8.91325 6.24996 8.35492 6.24996 7.66325C6.24996 6.97158 6.80829 6.41325 7.49996 6.41325ZM7.54163 14.7466H3.97496C4.79996 14.3299 6.22496 13.9132 7.49996 13.9132C7.59163 13.9132 7.69163 13.9216 7.78329 13.9216C8.06663 13.3132 8.55829 12.8132 9.14996 12.4132C8.54163 12.3049 7.96663 12.2466 7.49996 12.2466C5.54996 12.2466 1.66663 13.2216 1.66663 15.1632V16.4132H7.49996V15.1632C7.49996 15.0216 7.51663 14.8799 7.54163 14.7466ZM13.75 12.6632C12.2166 12.6632 9.16663 13.5049 9.16663 15.1632V16.4132H18.3333V15.1632C18.3333 13.5049 15.2833 12.6632 13.75 12.6632ZM14.7583 11.1466C15.3916 10.7882 15.8333 10.1132 15.8333 9.32992C15.8333 8.17992 14.9 7.24658 13.75 7.24658C12.6 7.24658 11.6666 8.17992 11.6666 9.32992C11.6666 10.1132 12.1083 10.7882 12.7416 11.1466C13.0416 11.3132 13.3833 11.4132 13.75 11.4132C14.1166 11.4132 14.4583 11.3132 14.7583 11.1466Z" fill="currentColor"/>
</svg>
