<svg width="20" height="21" viewBox="0 0 20 21" fill="none" xmlns="http://www.w3.org/2000/svg">
<path d="M10 2.66327C6.31671 2.66327 3.33337 3.07994 3.33337 5.9966V14.3299C3.33337 15.0633 3.65837 15.7216 4.16671 16.1799V17.6633C4.16671 18.1216 4.54171 18.4966 5.00004 18.4966H5.83337C6.29171 18.4966 6.66671 18.1216 6.66671 17.6633V16.8299H13.3334V17.6633C13.3334 18.1216 13.7084 18.4966 14.1667 18.4966H15C15.4584 18.4966 15.8334 18.1216 15.8334 17.6633V16.1799C16.3417 15.7216 16.6667 15.0633 16.6667 14.3299V5.9966C16.6667 3.07994 13.6834 2.66327 10 2.66327ZM14.7167 5.15494H5.28337C5.74171 4.71327 6.92504 4.32994 10 4.32994C13.075 4.32994 14.2584 4.71327 14.7167 5.15494ZM15 6.8216V9.32994H5.00004V6.8216H15ZM14.7167 14.9383L14.475 15.1633H5.52504L5.28337 14.9383C5.17504 14.8466 5.00004 14.6383 5.00004 14.3299V10.9966H15V14.3299C15 14.6383 14.825 14.8466 14.7167 14.9383Z" fill="currentColor"/>
<path d="M7.08337 14.3299C7.77373 14.3299 8.33337 13.7703 8.33337 13.0799C8.33337 12.3896 7.77373 11.8299 7.08337 11.8299C6.39302 11.8299 5.83337 12.3896 5.83337 13.0799C5.83337 13.7703 6.39302 14.3299 7.08337 14.3299Z" fill="currentColor"/>
<path d="M12.9167 14.3299C13.6071 14.3299 14.1667 13.7703 14.1667 13.0799C14.1667 12.3896 13.6071 11.8299 12.9167 11.8299C12.2264 11.8299 11.6667 12.3896 11.6667 13.0799C11.6667 13.7703 12.2264 14.3299 12.9167 14.3299Z" fill="currentColor"/>
</svg>
